<svg width="56" height="56" viewBox="0 0 56 56" fill="none" xmlns="http://www.w3.org/2000/svg">
<!-- <rect width="56" height="56" fill="white"/> -->
<path fill-rule="evenodd" clip-rule="evenodd" d="M28.0005 49.0001C16.4025 49.0001 7 39.5983 7 28.0001C7 16.4008 16.4025 7.00006 28.0005 7.00006C39.5985 7.00006 49 16.4008 49 28.0001C49 39.5983 39.5985 49.0001 28.0005 49.0001Z" fill="#705F5F"/>
<path fill-rule="evenodd" clip-rule="evenodd" d="M21.6948 25.0607C21.6948 27.4749 18.8944 31.0297 15.9781 32.3849L15.9512 32.3747C16.5197 33.9405 17.3866 35.3638 18.4709 36.5877L18.4802 36.5816C20.7834 35.3903 22.6206 33.0991 24.0415 30.3908C22.7988 29.0407 21.6948 26.3141 21.6948 25.0607Z" fill="#FEDA00"/>
<path fill-rule="evenodd" clip-rule="evenodd" d="M28.0014 25.0607C27.9258 28.6836 25.1254 35.9519 21.7762 39.2065C23.6175 40.23 25.7395 40.816 28.0014 40.817C30.2611 40.816 32.381 40.23 34.2234 39.2065C30.8742 35.9519 28.0749 28.6836 28.0014 25.0607Z" fill="#FEDA00"/>
<path fill-rule="evenodd" clip-rule="evenodd" d="M34.3062 25.0607C34.3062 27.4749 37.1055 31.0297 40.0229 32.3849L40.0509 32.3747C39.4833 33.9405 38.6144 35.3638 37.5312 36.5877L37.5198 36.5816C35.2176 35.3903 33.3804 33.0991 31.9595 30.3908C33.2033 29.0407 34.3062 26.3141 34.3062 25.0607Z" fill="#FEDA00"/>
<path fill-rule="evenodd" clip-rule="evenodd" d="M25.2779 27.6854C26.7879 23.9109 27.6226 19.7396 27.9012 16.8044C27.9146 16.6548 27.9633 15.6965 27.9633 15.1827C25.7243 15.1939 23.6157 15.7728 21.7309 16.8186C21.7516 17.5176 21.8086 18.125 21.8407 18.3854C22.2042 21.3766 23.2729 26.4004 25.2779 27.6854Z" fill="#FEDA00"/>
<path fill-rule="evenodd" clip-rule="evenodd" d="M21.5885 18.3824C21.6113 18.1596 21.6403 17.5532 21.6579 16.8594C17.795 19.0702 15.1831 23.2293 15.1831 27.9978C15.1831 28.4149 15.2183 29.1627 15.2556 29.5717C19.5006 27.8014 21.1131 23.0706 21.5885 18.3824Z" fill="#FEDA00"/>
<path fill-rule="evenodd" clip-rule="evenodd" d="M30.7231 27.6854C29.2142 23.9109 28.3774 19.7396 28.1009 16.8044C28.0854 16.6548 28.0367 15.6965 28.0367 15.1827C30.2757 15.1939 32.3863 15.7728 34.2701 16.8186C34.2494 17.5176 34.1935 18.125 34.1604 18.3854C33.7969 21.3766 32.7281 26.4004 30.7231 27.6854Z" fill="#FEDA00"/>
<path fill-rule="evenodd" clip-rule="evenodd" d="M34.4125 18.3824C34.3907 18.1596 34.3597 17.5532 34.3452 16.8594C38.206 19.0702 40.8168 23.2293 40.8168 27.9978C40.8168 28.4149 40.7837 29.1627 40.7464 29.5717C36.5003 27.8014 34.8878 23.0706 34.4125 18.3824Z" fill="#FEDA00"/>
</svg>
