<svg width="56" height="56" viewBox="0 0 56 56" fill="none" xmlns="http://www.w3.org/2000/svg">
<!-- <rect width="56" height="56" fill="white"/> -->
<mask id="mask0_94_400" style="mask-type:alpha" maskUnits="userSpaceOnUse" x="7" y="7" width="42" height="43">
<path d="M7 7H49V49.0009H7V7Z" fill="white"/>
</mask>
<g mask="url(#mask0_94_400)">
<path fill-rule="evenodd" clip-rule="evenodd" d="M28.5242 49.001H27.4758C16.1664 49.001 7 39.8336 7 28.5242V27.4768C7 16.1674 16.1664 7 27.4758 7H28.5242C39.8336 7 49 16.1674 49 27.4768V28.5242C49 39.8336 39.8336 49.001 28.5242 49.001Z" fill="#1F4597"/>
</g>
<path fill-rule="evenodd" clip-rule="evenodd" d="M34.6688 34.8838C33.4372 35.8633 32.1355 36.7443 30.8422 37.6965C30.8422 37.6965 30.0961 38.2449 29.7905 38.4573C29.7309 38.4594 29.6472 38.4751 29.6106 38.4196C29.6336 37.3 29.2841 35.9585 30.1526 35.1569C31.4261 33.67 32.7612 32.2396 33.861 30.6533C33.861 30.6533 34.9974 29.0282 35.5363 28.2414C35.7058 28.279 35.7759 28.482 35.7937 28.617C36.3744 30.7077 36.567 32.7963 34.6688 34.8838ZM28.0023 34.2884C27.9782 34.2884 27.9374 34.2675 27.8997 34.2257C26.2611 32.2794 24.3964 30.0882 22.7651 28.1325C22.4679 27.6397 22.1665 27.1625 22.1331 26.5295C22.11 26.0262 22.0849 25.571 22.4941 24.9473C22.4941 24.9473 22.7661 24.5539 22.8425 24.4377C22.8425 24.4377 26.1962 19.7321 27.9499 17.5012C27.9499 17.5012 27.973 17.4719 28.0023 17.4719C28.0284 17.4719 28.0494 17.5012 28.0494 17.5012C29.8115 19.7321 33.1578 24.4377 33.1578 24.4377C33.2394 24.5539 33.5073 24.9473 33.5073 24.9473C33.9154 25.571 33.883 26.0262 33.8694 26.5295C33.8328 27.1625 33.5303 27.6397 33.2394 28.1325C31.6029 30.0882 29.7487 32.2794 28.1027 34.2257C28.065 34.2675 28.0201 34.2884 28.0023 34.2884ZM26.3793 38.4196C26.349 38.4751 26.2663 38.4594 26.1972 38.4573C25.8959 38.2449 25.1446 37.6965 25.1446 37.6965C23.8554 36.7443 22.5589 35.8633 21.3242 34.8838C19.4271 32.7963 19.6186 30.7077 20.2035 28.617C20.2182 28.482 20.2862 28.279 20.4599 28.2414C20.9967 29.0282 22.1289 30.6533 22.1289 30.6533C23.2328 32.2396 24.5701 33.67 25.8394 35.1569C26.711 35.9585 26.3584 37.3 26.3793 38.4196ZM38.2433 28.685C37.9869 27.7119 37.6144 26.9836 37.0138 25.8797C36.8108 25.571 36.5638 25.2131 36.3357 24.8427C33.7082 20.9564 28.5359 14.1726 28.065 13.7353C28.065 13.7353 28.0326 13.7101 28.0023 13.7101C27.973 13.7101 27.9405 13.7353 27.9405 13.7353C27.4665 14.1726 22.29 20.9564 19.673 24.8427C19.4428 25.2131 19.1948 25.571 18.9949 25.8797C18.388 26.9836 18.0155 27.7119 17.7592 28.685C17.4337 30.0997 17.4233 31.8535 17.7142 33.2954C17.9778 34.5647 19.1812 35.857 20.3929 36.8259L22.2461 38.2919C22.2461 38.2919 27.4173 42.0244 27.8997 42.2619C27.8997 42.2619 27.9447 42.2902 28.0023 42.2902C28.0577 42.2902 28.1027 42.2619 28.1027 42.2619C28.5862 42.0244 33.7595 38.2919 33.7595 38.2919L35.6064 36.8259C36.8275 35.857 38.0235 34.5647 38.2904 33.2954C38.5781 31.8535 38.5624 30.0997 38.2433 28.685Z" fill="white"/>
</svg>
