<svg width="56" height="56" viewBox="0 0 56 56" fill="none" xmlns="http://www.w3.org/2000/svg">
<!-- <rect width="56" height="56" fill="white"/> -->
<mask id="mask0_94_385" style="mask-type:alpha" maskUnits="userSpaceOnUse" x="7" y="7" width="42" height="43">
<path d="M7 7H49V49.0009H7V7Z" fill="white"/>
</mask>
<g mask="url(#mask0_94_385)">
<path fill-rule="evenodd" clip-rule="evenodd" d="M28.5242 49.001H27.4758C16.1664 49.001 7 39.8336 7 28.5242V27.4768C7 16.1674 16.1664 7 27.4758 7H28.5242C39.8336 7 49 16.1674 49 27.4768V28.5242C49 39.8336 39.8336 49.001 28.5242 49.001Z" fill="#5BB8E8"/>
</g>
<path fill-rule="evenodd" clip-rule="evenodd" d="M32.2868 36.8763C32.0817 37.1075 32.0304 37.8756 32.0304 37.8756C32.0304 37.8756 31.5428 41.0524 27.4954 41.7179C27.4954 41.7179 29.8016 42.3845 31.7992 40.771C33.7978 39.1564 34.1567 37.3629 33.9003 35.4668L33.0287 36.4923C33.0287 36.4923 32.4908 36.6461 32.2868 36.8763ZM41.3715 31.66L40.8661 31.8285C40.8661 31.8285 40.5815 33.8962 39.623 35.8299C38.6635 37.7647 38.0587 38.5369 37.8232 38.5882C37.5867 38.6384 37.5376 38.6217 37.4863 38.0671C37.4361 37.5114 37.706 36.7894 38.2606 36.5195C38.2606 36.5195 38.3265 35.9984 38.1936 35.6792C38.0587 35.359 38.0419 34.6527 38.1759 34.2164C38.3108 33.779 38.4615 33.6272 38.4615 33.6272C38.4615 33.6272 38.1424 33.1229 38.0419 32.1979C37.9404 31.2729 38.2606 30.4661 38.2606 30.4661C38.2606 30.4661 37.8734 30.2641 37.706 29.944C37.5376 29.6248 37.3346 29.0535 37.0834 28.8348C36.8312 28.6161 36.5948 28.6328 36.5111 28.7511C36.5111 28.7511 36.3436 28.6496 36.2421 28.5491C36.1417 28.4476 36.058 28.3137 35.855 28.3304C35.6541 28.3472 35.5023 28.5826 35.5023 28.5826C35.5023 28.5826 35.1664 28.5659 34.9812 28.4821C34.796 28.3974 34.4936 28.3806 34.3754 28.5156C34.2582 28.6496 33.804 28.7008 33.804 28.7008C33.804 28.7008 33.6523 28.5659 33.4849 28.4644C33.3164 28.3639 33.148 28.3304 33.081 28.4644C33.013 28.5993 33.1647 29.0367 33.1647 29.0367C33.1647 29.0367 34.5606 30.1626 34.729 31.9624C34.8965 33.7622 34.4089 34.367 34.4089 34.367C34.4089 34.367 35.3673 36.7214 34.4769 38.9073C33.5853 41.0932 31.1797 42.4054 29.8194 42.5571C28.457 42.7078 27.1281 42.3887 26.337 41.8006C26.337 41.8006 24.1019 42.035 22.6725 40.9091C21.2421 39.7821 20.7378 38.5714 20.923 37.2927C21.1071 36.0151 21.9317 35.7964 22.3189 35.7294C22.706 35.6625 23.1937 35.8477 23.2271 36.2505C23.2606 36.6544 23.0084 36.7382 22.6045 36.8229C22.2006 36.9066 21.7141 37.2593 21.8135 38.336C21.915 39.4117 22.5208 40.4215 24.5895 41.0263L24.6052 40.6904C24.6052 40.6904 24.1678 40.4215 24.0172 39.4462C23.8654 38.4699 24.4378 37.6632 25.0091 37.411C25.5815 37.1588 26.0513 37.3105 26.1361 37.7301C26.2198 38.1508 25.7489 38.336 25.4633 38.336C25.1776 38.336 24.7067 38.6551 24.6555 39.126C24.6052 39.5969 25.1943 40.5721 25.7322 40.7239C26.27 40.8745 27.397 40.8578 27.9861 40.7741C28.5742 40.6904 30.374 39.9841 31.1305 37.5952C31.1305 37.5952 30.7779 37.5292 30.4409 37.5795C30.104 37.6297 29.5662 37.7301 29.179 37.6297C28.7929 37.5292 28.4905 36.9903 28.4905 36.9903C28.4905 36.9903 27.6994 36.9569 27.3133 36.4358C26.9261 35.9147 27.3468 35.3423 27.3468 35.3423C27.3468 35.3423 27.3813 36.1836 28.0698 36.1501C28.7594 36.1156 28.6244 35.6457 28.6244 35.6457C28.6244 35.6457 28.8609 35.8979 29.5327 35.8979C30.2055 35.8979 30.6262 35.2418 30.6429 34.7877C30.6429 34.7877 30.0036 34.8379 29.8529 34.4351C29.7001 34.0312 29.9701 33.7455 29.9701 33.7455C29.9701 33.7455 29.3653 33.779 29.3653 33.2746C29.3653 32.7703 30.172 32.8205 30.306 33.0046C30.4409 33.1899 30.7266 32.9879 30.9788 32.517C31.231 32.0472 31.2645 32.0137 31.0803 31.7103C30.8951 31.4079 30.7779 31.525 30.6084 31.5763C30.4409 31.6265 30.1888 31.7437 30.0705 31.5585C29.9533 31.3744 30.306 31.0207 29.9701 30.8365C29.6331 30.6513 29.2638 31.0374 29.0451 31.2226C28.8264 31.4079 28.7929 31.6935 29.3475 31.8452C29.3475 31.8452 29.1968 32.1811 28.8609 32.1142C28.5229 32.0472 28.4235 31.9624 28.254 31.9959C28.0866 32.0305 27.9516 32.2648 28.0363 32.3496C28.1211 32.4333 28.3053 32.6353 28.2048 32.9377C28.1033 33.2401 27.9181 33.3081 27.9181 33.3081C27.9181 33.3081 27.6837 32.8372 27.5487 32.787C27.4137 32.7357 27.2955 32.9544 27.0098 32.9209C26.7252 32.8874 26.7587 32.8205 26.5065 32.8205C26.2533 32.8205 26.0011 32.9879 26.0011 32.9879C26.0011 32.9879 25.48 32.9879 25.3115 32.8205C25.3115 32.8205 25.1263 33.0894 24.9924 33.2401C24.8574 33.3918 24.6565 33.7277 24.5895 33.8962C24.5215 34.0646 24.6052 34.3001 24.6052 34.3001C24.6052 34.3001 24.2359 34.1316 24.2013 33.7957C24.2013 33.7957 23.8832 33.8627 23.8989 34.0479C23.8989 34.0479 23.7148 33.7277 23.7315 33.4933C23.7315 33.4933 23.4458 33.4755 23.428 33.6272C23.428 33.6272 23.2941 33.4085 23.3611 33.0727C23.428 32.7357 24.2693 31.8452 24.8239 31.8118C25.3785 31.7772 26.9774 31.7605 26.9774 31.7605C26.9774 31.7605 28.1033 31.1389 28.254 31.0039C28.4057 30.87 28.3555 30.735 28.1033 30.7183C27.8511 30.7015 27.6324 30.7015 27.465 30.5331C27.2955 30.3646 27.3813 30.3311 27.1626 30.2139C26.9439 30.0967 26.6405 29.7765 26.4552 29.7765C26.27 29.7765 26.1361 29.945 26.1183 30.0622C26.1026 30.1804 26.1026 30.4828 26.0011 30.5833C25.8996 30.6848 25.8002 30.5331 25.682 30.4494C25.5637 30.3646 25.345 30.4996 25.3628 30.6681C25.3785 30.8365 25.6652 31.1211 25.615 31.3241C25.615 31.3241 25.2456 31.1389 25.0269 31.1211C24.8082 31.1054 24.4713 30.9872 24.2693 30.9872C24.0684 30.9872 23.6133 31.3744 23.3946 31.3744C23.1759 31.3744 23.0241 31.1557 22.975 31.1724C22.9247 31.1892 22.8054 31.3074 22.6548 31.3911C22.503 31.4748 22.4026 31.4581 22.2509 31.4581C22.1002 31.4581 21.9819 31.5931 21.9819 31.6935C21.9819 31.795 21.7978 31.9792 21.7978 31.9792C21.7978 31.9792 21.7632 32.0629 21.6628 31.8285L21.4954 32.0137C21.4954 32.0137 21.4096 31.8285 21.3604 31.6433C21.3101 31.4581 21.3436 31.3064 21.3436 31.3064L21.1249 31.4079C21.1249 31.4079 20.99 31.0039 21.1919 30.8365C21.3939 30.6681 22.0656 30.1459 22.2352 30.0622C22.4036 29.9785 22.9247 30.0967 23.2774 30.1135C23.631 30.1302 24.5383 30.0622 24.5383 30.0622C24.5383 30.0622 25.5972 29.6248 25.6987 29.4574C25.8002 29.2889 25.7824 29.2722 25.4968 29.1874C25.2111 29.1037 25.1106 28.6663 24.9254 28.4989C24.7402 28.3304 24.5717 28.2969 24.3708 28.1117C24.1678 27.9265 24.0339 27.4734 24.0339 27.4734C24.0339 27.4734 23.7315 27.6911 23.428 27.8083C23.1256 27.9265 22.7563 27.8595 22.7563 27.8595C22.7563 27.8595 22.6882 28.2634 22.4361 28.4141C22.1849 28.5659 21.6795 28.6496 21.6795 28.6496C21.6795 28.6496 21.1082 29.2042 20.5191 29.3559C19.931 29.5076 19.3932 29.3559 19.3932 29.3559C19.3932 29.3559 19.3095 29.8602 19.0908 30.0789C18.8721 30.2976 18.4682 30.3311 18.4169 30.7518C18.3667 31.1724 18.3332 31.5418 18.3332 31.5418L18.014 31.795H17.6771C17.6771 31.795 17.6949 32.3496 17.5934 32.8037C17.4919 33.2579 17.2397 33.712 17.2397 33.712C17.2397 33.712 17.3077 34.3838 17.2575 34.8547C17.2062 35.3255 17.1392 35.629 17.1895 35.7964C17.2397 35.9649 17.5934 36.4525 17.6269 36.5362C17.6603 36.621 17.6101 36.7884 17.7284 37.0741C17.8456 37.3608 18.1145 37.546 17.9805 37.7804C17.8456 38.0158 17.5934 37.9321 17.2397 37.5952C16.8871 37.2593 16.0803 35.9984 15.6596 34.6705C15.239 33.3416 15.0036 31.5931 15.0036 31.5931C15.0036 31.5931 14.6342 31.6265 14.449 31.2394C14.2638 30.8533 14.2805 29.4898 14.3653 28.8515C14.449 28.2132 14.7012 27.5571 14.7012 27.5571C14.7012 27.5571 14.6509 27.4389 14.4155 27.4054C14.179 27.3719 14.1968 27.4222 14.179 26.6991C14.1633 25.976 14.7849 23.6217 15.4075 23.0336C15.4075 23.0336 15.2568 23.0671 15.1888 22.9488C15.1218 22.8316 15.4912 22.0249 15.9453 21.3343C16.3994 20.6457 17.6771 19.4173 18.5686 19.1316C19.4601 18.8459 20.4521 18.9809 20.99 19.4351C21.5288 19.8892 21.9662 20.5107 22.4539 20.7294C22.9404 20.9481 23.6467 20.7462 23.7639 20.6792C23.8832 20.6122 24.1521 20.359 24.1521 20.1581C24.1521 19.9562 24.6732 19.569 24.6732 19.569C24.6732 19.569 24.6052 18.9642 24.7402 18.5938C24.8752 18.2233 25.1263 18.2913 25.2278 18.0727C25.3293 17.854 25.345 17.3831 25.682 17.2491C25.682 17.2491 25.0091 17.3496 24.5383 16.9457C24.0684 16.5418 24.0172 16.1054 24.3206 15.8857C24.623 15.667 24.9757 15.8365 24.9924 16.0374C25.0091 16.2394 25.0426 16.525 25.0426 16.525C25.0426 16.525 25.1441 16.727 25.3963 16.7437C25.6485 16.7605 25.8159 16.4413 25.8159 16.4413C25.8159 16.4413 25.2948 16.2394 25.2278 15.7015C25.1598 15.1637 25.5135 15.012 25.7154 15.012C25.9174 15.012 26.1183 15.2809 25.9676 15.667C25.9676 15.667 25.9174 15.9202 26.1183 15.9537C26.3213 15.9872 26.54 15.8857 26.54 15.8857C26.54 15.8857 27.33 15.0967 28.2885 15.0622C29.247 15.0287 29.8864 15.3479 30.0873 15.4494C30.2892 15.5498 30.7779 15.9705 30.7779 15.9705C30.7779 15.9705 31.3492 15.735 31.9708 16.0374C32.5934 16.3409 32.5431 16.6935 32.744 16.7605C32.744 16.7605 32.3579 16.8955 32.089 16.9122C31.8201 16.9289 31.9205 17.2481 31.3827 17.3496C30.8438 17.4501 30.4409 17.4333 30.4409 17.4333C30.4409 17.4333 30.2568 17.8372 29.8686 17.8874C29.4825 17.9377 29.2303 17.9377 28.6914 18.51C28.1535 19.0814 27.9024 19.7375 28.187 20.3088C28.4727 20.8801 29.382 21.7047 30.5079 21.7382C31.6349 21.7716 32.6436 21.0496 33.1814 20.5442C33.7203 20.0399 34.4769 19.2164 35.721 19.2331C36.9652 19.2498 37.9237 19.8724 38.6635 20.3758C39.4043 20.8801 40.3628 22.0918 40.3628 22.0918L40.0091 22.4947C40.0091 22.4947 41.1361 24.0088 41.5902 25.5386C42.0433 27.0685 41.8581 27.6241 41.8581 27.6241L41.5065 27.8763C41.5065 27.8763 41.8424 30.3646 41.3715 31.66Z" fill="white"/>
</svg>
