<svg width="56" height="56" viewBox="0 0 56 56" fill="none" xmlns="http://www.w3.org/2000/svg">
<!-- <rect width="56" height="56" fill="white"/> -->
<path fill-rule="evenodd" clip-rule="evenodd" d="M28.5242 49.001H27.4758C16.1664 49.001 7 39.8336 7 28.5242V27.4767C7 16.1674 16.1664 6.99994 27.4758 6.99994H28.5242C39.8336 6.99994 49 16.1674 49 27.4767V28.5242C49 39.8336 39.8336 49.001 28.5242 49.001Z" fill="#5A2A74"/>
<path fill-rule="evenodd" clip-rule="evenodd" d="M36.7615 23.0879L28.0294 15.2463L28.0001 15.2191L27.9708 15.2463L19.2376 23.0879L15.9216 35.9951L22.1958 38.9533H27.1703V33.6648C27.1703 33.6648 24.4821 35.2784 22.2408 34.5155C19.2858 33.511 20.3583 27.5696 22.7786 24.0736C24.9583 20.9261 27.5554 19.1995 28.0001 18.917C28.4448 19.1995 31.042 20.9261 33.2206 24.0736C35.6419 27.5696 36.7134 33.511 33.7584 34.5155C31.517 35.2784 28.8289 33.6648 28.8289 33.6648V38.9533H33.8044L40.0786 35.9951L36.7615 23.0879Z" fill="#DFAB26"/>
</svg>
